<svg width="24" height="24" viewBox="0 0 24 24" fill="none" xmlns="http://www.w3.org/2000/svg">
<path d="M9.74997 13.125C9.74997 13.3475 9.68399 13.565 9.56037 13.75C9.43676 13.935 9.26105 14.0792 9.05549 14.1643C8.84992 14.2495 8.62372 14.2718 8.40549 14.2284C8.18726 14.185 7.98681 14.0778 7.82947 13.9205C7.67214 13.7631 7.56499 13.5627 7.52159 13.3445C7.47818 13.1262 7.50046 12.9 7.5856 12.6945C7.67075 12.4889 7.81495 12.3132 7.99995 12.1896C8.18496 12.066 8.40246 12 8.62497 12C8.92334 12 9.20949 12.1185 9.42046 12.3295C9.63144 12.5405 9.74997 12.8266 9.74997 13.125ZM15.375 12C15.1525 12 14.935 12.066 14.75 12.1896C14.5649 12.3132 14.4208 12.4889 14.3356 12.6945C14.2505 12.9 14.2282 13.1262 14.2716 13.3445C14.315 13.5627 14.4221 13.7631 14.5795 13.9205C14.7368 14.0778 14.9373 14.185 15.1555 14.2284C15.3737 14.2718 15.5999 14.2495 15.8055 14.1643C16.0111 14.0792 16.1868 13.935 16.3104 13.75C16.434 13.565 16.5 13.3475 16.5 13.125C16.5 12.8266 16.3814 12.5405 16.1705 12.3295C15.9595 12.1185 15.6733 12 15.375 12ZM22.3547 18.0844L16.0734 20.8697C15.8845 20.9536 15.6805 20.9981 15.4738 21.0003C15.2671 21.0025 15.0622 20.9624 14.8716 20.8825C14.6809 20.8026 14.5087 20.6846 14.3653 20.5357C14.222 20.3867 14.1106 20.2101 14.0381 20.0165L13.2778 17.954C12.8578 17.9822 12.4318 17.9965 12 17.9972C11.5681 17.9978 11.1422 17.9834 10.7222 17.954L9.96184 20.0165C9.88918 20.21 9.77776 20.3866 9.63441 20.5354C9.49106 20.6843 9.3188 20.8023 9.12821 20.8821C8.93763 20.962 8.73273 21.0021 8.52608 21C8.31944 20.9978 8.11542 20.9535 7.92653 20.8697L1.64528 18.0844C1.32108 17.9426 1.05774 17.6904 0.902185 17.3725C0.74663 17.0547 0.708967 16.692 0.795907 16.349L3.56247 5.43748C3.63548 5.15371 3.78966 4.89738 4.00613 4.6999C4.2226 4.50241 4.49195 4.37234 4.78122 4.3256L8.16184 3.76967C8.53452 3.70973 8.91618 3.79054 9.23258 3.99639C9.54898 4.20224 9.77751 4.51841 9.87372 4.88342L10.1793 6.08717C10.775 6.02904 11.3818 5.99998 12 5.99998C12.6181 5.99998 13.2243 6.02904 13.8187 6.08717L14.1243 4.88342C14.2204 4.5183 14.4489 4.202 14.7653 3.99611C15.0818 3.79023 15.4635 3.70951 15.8362 3.76967L19.2187 4.3256C19.508 4.37234 19.7773 4.50241 19.9938 4.6999C20.2103 4.89738 20.3645 5.15371 20.4375 5.43748L23.2059 16.3481C23.293 16.6914 23.2552 17.0546 23.0992 17.3726C22.9433 17.6906 22.6794 17.9429 22.3547 18.0844ZM21.75 16.7137L18.9815 5.81248C18.9815 5.81248 18.9815 5.81248 18.974 5.81248L15.5934 5.24998C15.591 5.24858 15.5882 5.24784 15.5854 5.24784C15.5826 5.24784 15.5799 5.24858 15.5775 5.24998L15.3122 6.29435C15.7809 6.38248 16.2497 6.48748 16.7025 6.61498C16.881 6.66049 17.0365 6.77011 17.1394 6.92294C17.2423 7.07577 17.2853 7.26112 17.2603 7.44364C17.2352 7.62617 17.1439 7.79309 17.0037 7.91258C16.8634 8.03208 16.6842 8.09578 16.5 8.09154C16.4315 8.09135 16.3634 8.08189 16.2975 8.06342C14.8968 7.68334 13.4513 7.49382 12 7.49998C10.5487 7.49352 9.10318 7.68272 7.70247 8.06248C7.60678 8.09206 7.50614 8.10218 7.40648 8.09223C7.30682 8.08229 7.21017 8.05249 7.12221 8.00458C7.03426 7.95668 6.95679 7.89164 6.89438 7.81331C6.83196 7.73498 6.78587 7.64494 6.75882 7.54851C6.73177 7.45208 6.72431 7.35121 6.73687 7.25184C6.74944 7.15248 6.78178 7.05664 6.83199 6.96998C6.88219 6.88332 6.94925 6.80759 7.02919 6.74726C7.10914 6.68693 7.20036 6.64323 7.29747 6.61873C7.74934 6.49123 8.21434 6.38623 8.68684 6.2981L8.42153 5.24998C8.42153 5.24998 8.42153 5.24998 8.41028 5.24998L5.02591 5.80592C5.02315 5.80516 5.02023 5.80516 5.01747 5.80592L2.24997 16.7184L8.53122 19.5C8.53438 19.5017 8.53793 19.5026 8.54153 19.5026C8.54513 19.5026 8.54868 19.5017 8.55184 19.5L9.18747 17.7862C8.55062 17.6888 7.92013 17.5536 7.29934 17.3812C7.11444 17.3221 6.95965 17.1937 6.86751 17.0228C6.77536 16.852 6.75304 16.6521 6.80525 16.4651C6.85745 16.2782 6.98011 16.1187 7.14743 16.0203C7.31475 15.9219 7.51371 15.8922 7.70247 15.9375C9.1031 16.3177 10.5487 16.5069 12 16.5C13.4513 16.5069 14.8968 16.3177 16.2975 15.9375C16.489 15.8838 16.6941 15.9084 16.8676 16.0059C17.041 16.1033 17.1686 16.2657 17.2223 16.4573C17.276 16.6489 17.2514 16.854 17.1539 17.0274C17.0564 17.2008 16.894 17.3285 16.7025 17.3822C16.0811 17.5543 15.4499 17.6892 14.8125 17.7862L15.4453 19.5C15.4483 19.5016 15.4517 19.5025 15.4551 19.5025C15.4586 19.5025 15.4619 19.5016 15.465 19.5L21.75 16.7137Z" fill="#818CF8"/>
</svg>
